#!OML:ASF H:\Terrain\Patient Classification 1\Walking\steve\steve.ASF
:FULLY-SPECIFIED
:DEGREES
220
root 7.47227 16.4237 14.4545 8.27602 -5.85287 -5.69715
lowerback -1.45537 5.02524 7.474
upperback -2.85516 6.71899 2.1306
thorax -1.55064 3.23894 -1.90932
lowerneck -11.0064 -1.13982 -0.526166
upperneck 14.5154 -1.27392 -1.10484
head 6.21256 -0.731676 -0.372858
rclavicle 8.09799e-014 2.3059e-014
rhumerus -0.326828 0.889156 -82.4302
rradius 31.1011
rwrist -9.98983
rhand -21.6497 -38.2249
rfingers 7.12502
rthumb 4.74698 -68.1517
lclavicle 8.09799e-014 2.3059e-014
lhumerus -61.2751 12.2041 68.0169
lradius 12.5266
lwrist -10.175
lhand -18.393 -11.6114
lfingers 7.12502
lthumb 7.89105 18.2214
rfemur -4.60808 -3.09842 28.0773
rtibia 27.9778
rfoot -11.1035 27.6321
rtoes 11.2183
lfemur -38.2341 2.70471 -14.0595
ltibia 34.5358
lfoot -15.6752 3.04493
ltoes -17.2058
221
root 7.48241 16.4107 14.6912 8.26504 -6.32648 -5.80365
lowerback -1.57266 5.24923 7.41443
upperback -2.71796 6.99617 2.1181
thorax -1.32382 3.38861 -1.86233
lowerneck -11.1158 -1.14982 -0.73377
upperneck 14.4473 -1.30787 -0.747381
head 6.2137 -0.730822 -0.228607
rclavicle 4.92365e-014 8.34896e-015
rhumerus 1.67434 1.65957 -81.8828
rradius 31.6494
rwrist -10.7285
rhand -19.0298 -37.5262
rfingers 7.12502
rthumb 7.27634 -67.3811
lclavicle 4.92365e-014 8.34896e-015
lhumerus -63.5931 13.1623 64.3622
lradius 12.1315
lwrist -12.16
lhand -18.8387 -11.1123
lfingers 7.12502
lthumb 7.46084 18.7361
rfemur -3.13046 -3.37884 27.8028
rtibia 26.7942
rfoot -10.1636 28.2831
rtoes 12.0345
lfemur -38.6247 2.27538 -13.513
ltibia 32.2601
lfoot -15.7729 3.62195
ltoes -13.9955
222
root 7.49088 16.4055 14.9259 8.25522 -6.98915 -5.69541
lowerback -1.71592 5.44338 6.98324
upperback -2.48667 7.22896 2.09865
thorax -1.03137 3.52586 -1.61467
lowerneck -11.2065 -1.10991 -0.967527
upperneck 14.052 -1.25818 -0.46697
head 6.10754 -0.696131 -0.0959997
rclavicle 8.13775e-015 -5.1684e-015
rhumerus 3.85524 2.51876 -81.3329
rradius 32.1474
rwrist -11.3907
rhand -20.6432 -41.4544
rfingers 7.12502
rthumb 5.71881 -71.3572
lclavicle 8.13775e-015 -5.1684e-015
lhumerus -65.9368 14.2396 60.3764
lradius 11.8314
lwrist -14.18
lhand -18.2184 -10.7854
lfingers 7.12502
lthumb 8.05957 19.041
rfemur -1.65271 -3.25227 27.3253
rtibia 25.4696
rfoot -9.0376 28.5551
rtoes 13.5503
lfemur -39.0373 2.09519 -13.2265
ltibia 30.2746
lfoot -16.1331 4.67414
ltoes -14.3682
223
root 7.50342 16.3869 15.1521 8.37225 -7.76662 -6.08462
lowerback -1.72471 5.7296 7.17906
upperback -2.39215 7.60095 2.11378
thorax -0.877912 3.71494 -1.68352
lowerneck -11.0104 -1.0452 -0.913051
upperneck 13.5663 -1.18804 -0.443849
head 5.92007 -0.656047 -0.0887041
rclavicle 5.08143e-015 -5.1684e-015
rhumerus 5.90059 3.02351 -80.7933
rradius 32.0962
rwrist -11.5185
rhand -20.7646 -41.3062
rfingers 7.12502
rthumb 5.60167 -71.2122
lclavicle 5.08143e-015 -5.1684e-015
lhumerus -68.2952 14.9029 56.3212
lradius 11.5998
lwrist -15.8695
lhand -17.1516 -10.4832
lfingers 7.12502
lthumb 9.08905 19.3009
rfemur -0.258081 -2.62073 27.44
rtibia 24.1985
rfoot -8.08148 28.5595
rtoes 14.5903
lfemur -39.6085 2.36034 -12.4629
ltibia 28.4866
lfoot -16.3821 6.01364
ltoes -17.6867
224
root 7.5106 16.3387 15.3752 8.44754 -8.67402 -7.0975
lowerback -1.39157 6.1461 7.98382
upperback -2.41341 8.18435 2.23089
thorax -0.950622 3.99114 -2.00907
lowerneck -10.9583 -0.895672 -0.407403
upperneck 13.505 -1.0354 -0.68968
head 5.8871 -0.574583 -0.235915
rclavicle 9.67833e-015 -6.75868e-015
rhumerus 7.53607 3.00287 -80.3271
rradius 32.1622
rwrist -11.1869
rhand -19.982 -38.5471
rfingers 7.12502
rthumb 6.35718 -68.4317
lclavicle 9.67833e-015 -6.75868e-015
lhumerus -70.7323 15.611 50.9372
lradius 11.0389
lwrist -18.9755
lhand -16.6553 -10.2368
lfingers 7.12502
lthumb 9.56795 19.526
rfemur 1.20733 -1.29433 28.3791
rtibia 22.9914
rfoot -7.23277 28.0296
rtoes 15.5414
lfemur -40.0506 2.48425 -10.8038
ltibia 26.8788
lfoot -17.0046 7.38307
ltoes -19.207
225
root 7.53693 16.302 15.6031 8.72285 -8.43448 -7.19575
lowerback -1.54013 6.20273 8.27103
upperback -2.54309 8.24845 2.0514
thorax -0.932606 4.01535 -2.33121
lowerneck -11.0685 -1.19713 -1.07668
upperneck 13.6087 -1.44536 0.0801342
head 5.94904 -0.749043 0.0816938
rclavicle -4.67517e-014 -4.37326e-015
rhumerus 8.9744 3.36943 -79.7051
rradius 32.8759
rwrist -11.9058
rhand -21.1614 -39.563
rfingers 7.12502
rthumb 5.2185 -69.4787
lclavicle -4.67517e-014 -4.37326e-015
lhumerus -73.1157 16.1374 45.1694
lradius 10.5034
lwrist -22.5725
lhand -16.8516 -10.2257
lfingers 7.12502
lthumb 9.37853 19.5457
rfemur 2.398 -2.16565 28.0836
rtibia 21.8111
rfoot -6.01388 28.6291
rtoes 16.9921
lfemur -40.9843 1.76386 -10.3714
ltibia 25.3695
lfoot -17.7286 8.07424
ltoes -20.4874
226
root 7.5531 16.2692 15.8358 9.01775 -8.58956 -7.55581
lowerback -1.72423 6.38083 8.60547
upperback -2.58851 8.46402 1.99574
thorax -0.802666 4.12104 -2.53468
lowerneck -11.4023 -1.26798 -1.05983
upperneck 13.7702 -1.53749 0.0608303
head 6.05742 -0.79423 0.0623391
rclavicle 9.30312e-014 2.70347e-014
rhumerus 10.5843 4.18062 -78.7437
rradius 33.3342
rwrist -13.1001
rhand -21.4533 -38.3838
rfingers 7.12502
rthumb 4.93664 -68.3063
lclavicle 9.30312e-014 2.70347e-014
lhumerus -75.3977 16.5088 39.4078
lradius 10.1784
lwrist -26.0481
lhand -16.9166 -10.2893
lfingers 7.12502
lthumb 9.31586 19.4849
rfemur 3.52126 -2.49247 28.0755
rtibia 20.7031
rfoot -5.02458 28.9833
rtoes 17.8515
lfemur -41.8175 1.19716 -9.36484
ltibia 23.8327
lfoot -18.2929 8.61351
ltoes -18.6886
227
root 7.56949 16.2409 16.0732 9.26031 -8.88729 -7.91567
lowerback -1.94834 6.58788 8.89412
upperback -2.59694 8.71012 1.98711
thorax -0.619714 4.24606 -2.6546
lowerneck -11.4597 -1.2729 -0.989276
upperneck 13.7481 -1.53221 -0.0911107
head 6.05846 -0.799832 0.0028318
rclavicle 1.24949e-013 1.78906e-014
rhumerus 11.983 4.68817 -77.9124
rradius 33.8414
rwrist -13.9709
rhand -21.2083 -38.2858
rfingers 7.12502
rthumb 5.17327 -68.2026
lclavicle 1.24949e-013 1.78906e-014
lhumerus -77.3497 16.6081 34.4394
lradius 9.84076
lwrist -28.7855
lhand -16.5596 -10.2477
lfingers 7.12502
lthumb 9.66026 19.5108
rfemur 4.65065 -2.64136 28.0396
rtibia 19.8089
rfoot -4.02706 29.0943
rtoes 18.2815
lfemur -42.3888 0.596364 -8.21696
ltibia 22.0689
lfoot -18.4634 8.97741
ltoes -14.5737
228
root 7.58472 16.2194 16.3146 9.33685 -9.29984 -7.83118
lowerback -2.21006 6.82622 8.7126
upperback -2.48977 8.99077 1.87096
thorax -0.339214 4.40158 -2.61808
lowerneck -11.183 -1.33713 -1.35135
upperneck 13.3482 -1.61466 0.271046
head 5.89148 -0.830073 0.172879
rclavicle 9.13291e-014 3.81667e-014
rhumerus 13.2717 4.25108 -77.4714
rradius 34.405
rwrist -13.8053
rhand -19.9455 -38.3551
rfingers 7.12502
rthumb 6.39244 -68.2386
lclavicle 9.13291e-014 3.81667e-014
lhumerus -78.8565 16.7027 29.5699
lradius 9.15913
lwrist -31.6938
lhand -16.6258 -10.4093
lfingers 7.12502
lthumb 9.59643 19.3521
rfemur 5.87157 -2.76458 27.5034
rtibia 19.0726
rfoot -3.90434 29.2763
rtoes 16.4792
lfemur -42.5836 -0.216182 -7.43081
ltibia 20.2697
lfoot -18.8144 9.8518
ltoes -13.451
229
root 7.59197 16.1842 16.5473 9.34577 -9.93246 -7.63968
lowerback -2.0771 7.09333 8.23228
upperback -2.47931 9.36718 1.6874
thorax -0.403369 4.59335 -2.54663
lowerneck -10.9192 -1.35889 -1.45283
upperneck 12.8672 -1.67082 0.54738
head 5.69892 -0.841555 0.275164
rclavicle 4.3186e-014 1.03368e-014
rhumerus 14.6892 5.37789 -76.1399
rradius 34.817
rwrist -15.4527
rhand -19.8489 -38.7947
rfingers 7.12502
rthumb 6.48569 -68.6754
lclavicle 4.3186e-014 1.03368e-014
lhumerus -80.1784 16.6377 24.5768
lradius 8.49744
lwrist -34.5526
lhand -16.9967 -9.65119
lfingers 7.12502
lthumb 9.23853 20.1264
rfemur 6.97483 -2.30721 26.977
rtibia 18.4625
rfoot -3.51676 29.2107
rtoes 15.2
lfemur -42.5776 -1.03727 -6.58286
ltibia 18.5153
lfoot -19.4789 10.9886
ltoes -14.0854
230
root 7.60014 16.1349 16.7729 9.39901 -10.5132 -7.98854
lowerback -1.57796 7.31943 8.21225
upperback -2.63107 9.73256 1.67513
thorax -0.802476 4.75807 -2.61057
lowerneck -10.8954 -1.39986 -1.20039
upperneck 12.6902 -1.73904 0.343209
head 5.63584 -0.877638 0.165056
rclavicle -4.99322e-014 4.57205e-015
rhumerus 16.32 7.63269 -74.1181
rradius 34.6125
rwrist -18.3374
rhand -21.4436 -38.9739
rfingers 7.12502
rthumb 4.94603 -68.8962
lclavicle -4.99322e-014 4.57205e-015
lhumerus -81.8317 16.1884 19.4795
lradius 8.57023
lwrist -37.1053
lhand -16.2224 -6.978
lfingers 7.12502
lthumb 9.98562 22.7651
rfemur 7.90265 -1.39891 27.1655
rtibia 18.1132
rfoot -2.52521 28.6103
rtoes 15.5222
lfemur -42.4856 -1.74958 -5.10442
ltibia 16.7066
lfoot -20.0393 11.7143
ltoes -13.0018
231
root 7.61362 16.0967 17.008 9.31757 -11.0219 -8.30374
lowerback -1.17086 7.503 8.23736
upperback -2.66273 10.0237 1.71874
thorax -1.03572 4.89369 -2.62655
lowerneck -10.8515 -1.39419 -0.899921
upperneck 12.5107 -1.72877 -0.0263778
head 5.56597 -0.885387 0.00195305
rclavicle -5.684e-014 -1.33186e-014
rhumerus 17.6939 7.05556 -73.905
rradius 34.0942
rwrist -18.1915
rhand -22.4352 -37.8074
rfingers 7.12502
rthumb 3.98848 -67.7498
lclavicle -5.684e-014 -1.33186e-014
lhumerus -83.4295 15.7637 14.4597
lradius 8.67244
lwrist -39.4813
lhand -18.8428 -9.63419
lfingers 7.12502
lthumb 7.45685 20.2144
rfemur 9.5289 -0.654285 27.2734
rtibia 16.6778
rfoot -1.30066 27.7179
rtoes 15.5531
lfemur -42.7953 -2.55119 -3.69124
ltibia 16.2814
lfoot -21.0209 12.2924
ltoes -12.1485
232
root 7.62346 16.0681 17.2415 9.04527 -11.5332 -7.91944
lowerback -0.675955 7.65649 7.59164
upperback -2.6869 10.2799 1.51955
thorax -1.37965 5.01898 -2.55752
lowerneck -10.5192 -1.28955 -0.783929
upperneck 12.0754 -1.62277 0.0702733
head 5.373 -0.821487 0.0258051
rclavicle -5.29637e-014 1.98785e-016
rhumerus 18.3124 4.77023 -75.0023
rradius 34.4265
rwrist -16.259
rhand -29.7438 -31.5251
rfingers 7.12502
rthumb -3.07 -61.4828
lclavicle -5.29637e-014 1.98785e-016
lhumerus -84.6481 15.3006 9.41297
lradius 8.69645
lwrist -42.0128
lhand -18.3099 -9.33835
lfingers 7.12502
lthumb 7.97119 20.4913
rfemur 10.8527 0.107147 26.681
rtibia 16.0657
rfoot -0.738873 27.1375
rtoes 15.3505
lfemur -42.6776 -3.14061 -3.32755
ltibia 15.5397
lfoot -21.5085 13.0561
ltoes -11.5383
